<svg width="1200" height="960" viewBox="0 0 1200 960" fill="none" xmlns="http://www.w3.org/2000/svg">
  <rect width="1200" height="960" rx="28" fill="#F8F7F2"/>
  <path d="M133 685C255 541 377 471 498 474C619 477 711 559 842 536C941 519 1015 461 1067 363" stroke="#D7DDD9" stroke-width="2"/>
  <path d="M132 710C257 565 381 493 505 497C627 501 718 585 849 560C955 540 1035 472 1082 352" stroke="#D7DDD9" stroke-width="2"/>
  <g transform="translate(244 178)">
    <path d="M164 393C111 394 73 367 60 318C48 272 59 230 94 191C141 139 221 113 326 113C455 113 549 145 609 209C651 254 662 312 640 383C622 444 578 487 507 512C430 539 351 535 269 501C216 478 181 442 164 393Z" fill="#FDFDFB" stroke="#17211F" stroke-width="8"/>
    <path d="M128 300C177 248 246 222 334 222C426 222 504 247 568 298" stroke="#2D5F8F" stroke-width="18" stroke-linecap="round"/>
    <path d="M188 409C268 449 354 460 446 441C514 428 569 394 611 339" stroke="#2F745C" stroke-width="18" stroke-linecap="round"/>
    <circle cx="235" cy="313" r="18" fill="#B94F47"/>
    <circle cx="377" cy="250" r="18" fill="#B94F47"/>
    <circle cx="531" cy="326" r="18" fill="#B94F47"/>
    <circle cx="442" cy="421" r="18" fill="#B94F47"/>
    <path d="M583 80L730 374" stroke="#17211F" stroke-width="18" stroke-linecap="round"/>
    <path d="M711 333L759 429" stroke="#17211F" stroke-width="34" stroke-linecap="round"/>
    <path d="M617 151C558 178 509 207 471 238C431 271 410 304 407 338C403 375 429 406 485 431" stroke="#C0933D" stroke-width="26" stroke-linecap="round" stroke-dasharray="2 48"/>
    <path d="M617 151C558 178 509 207 471 238C431 271 410 304 407 338C403 375 429 406 485 431" stroke="#C0933D" stroke-width="4" stroke-linecap="round"/>
  </g>
  <g font-family="Inter, Arial, sans-serif" font-size="28" fill="#17211F">
    <text x="117" y="118">swept probe volume</text>
    <text x="794" y="723">registered object pose</text>
  </g>
  <path d="M298 134C388 87 487 64 594 64C724 64 837 99 932 169" stroke="#2D5F8F" stroke-width="5" stroke-linecap="round"/>
  <path d="M897 154L949 182L899 214" stroke="#2D5F8F" stroke-width="5" stroke-linecap="round" stroke-linejoin="round"/>
</svg>
